<?xml version="1.0" standalone="no"?>
<!DOCTYPE svg PUBLIC "-//W3C//DTD SVG 20010904//EN"
 "http://www.w3.org/TR/2001/REC-SVG-20010904/DTD/svg10.dtd">
<svg version="1.0" xmlns="http://www.w3.org/2000/svg"
 width="1170.000000pt" height="1170.000000pt" viewBox="0 0 1170.000000 1170.000000"
 preserveAspectRatio="xMidYMid meet">
<metadata>
Created by potrace 1.14, written by Peter Selinger 2001-2017
</metadata>
<g transform="translate(0.000000,1170.000000) scale(0.100000,-0.100000)"
fill="#000000" stroke="none">
<path d="M5568 11695 c-2 -1 -52 -6 -113 -9 -60 -4 -123 -9 -140 -11 -16 -2
-59 -7 -95 -10 -64 -5 -79 -7 -170 -20 -25 -4 -61 -9 -80 -11 -19 -3 -42 -7
-50 -9 -8 -3 -37 -7 -63 -10 -27 -3 -90 -15 -140 -26 -87 -19 -126 -26 -172
-34 -11 -2 -21 -4 -22 -5 -2 -2 -6 -3 -10 -4 -5 -1 -24 -6 -43 -11 -19 -5 -39
-9 -45 -10 -13 -1 -80 -20 -170 -47 -38 -12 -77 -22 -85 -23 -32 -5 -420 -139
-475 -165 -11 -5 -63 -27 -115 -49 -52 -22 -126 -54 -165 -72 -38 -18 -73 -32
-77 -31 -5 1 -8 -2 -8 -8 0 -6 -3 -9 -8 -8 -12 4 -336 -166 -442 -232 -8 -5
-70 -43 -138 -85 -126 -78 -222 -143 -233 -158 -3 -5 -8 -7 -11 -5 -2 1 -18
-7 -34 -20 -16 -12 -71 -53 -122 -91 -123 -93 -184 -142 -200 -160 -6 -8 -12
-12 -12 -8 0 3 -10 -4 -23 -16 -13 -12 -47 -42 -76 -67 -111 -95 -159 -139
-300 -280 -159 -158 -237 -242 -367 -395 -50 -59 -244 -310 -274 -354 -8 -13
-23 -32 -32 -43 -10 -12 -18 -24 -18 -28 0 -4 -11 -20 -25 -36 -14 -16 -25
-35 -25 -41 0 -7 -4 -13 -9 -13 -5 0 -14 -13 -21 -30 -7 -16 -16 -30 -20 -30
-4 0 -19 -21 -34 -47 -14 -27 -36 -64 -49 -84 -54 -89 -122 -208 -153 -268
-19 -35 -39 -70 -45 -78 -6 -7 -8 -13 -3 -13 5 0 5 -4 -1 -8 -14 -10 -45 -71
-45 -88 0 -8 -4 -14 -9 -14 -5 0 -13 -10 -17 -22 -3 -13 -26 -65 -50 -115 -24
-51 -44 -95 -44 -98 0 -2 -11 -29 -25 -59 -14 -30 -25 -60 -25 -65 0 -6 -4
-11 -10 -11 -5 0 -9 -3 -8 -7 3 -8 -23 -85 -42 -128 -23 -51 -128 -362 -133
-390 -1 -11 -5 -25 -9 -30 -3 -6 -9 -27 -13 -48 -4 -20 -11 -40 -16 -42 -4 -3
-6 -12 -3 -19 3 -8 0 -17 -5 -21 -6 -3 -9 -11 -6 -16 4 -5 3 -15 -2 -21 -8
-15 -10 -19 -19 -68 -3 -19 -10 -43 -15 -52 -5 -10 -8 -18 -5 -18 2 0 0 -17
-5 -37 -13 -50 -15 -61 -24 -108 -5 -22 -9 -44 -11 -50 -8 -33 -21 -105 -29
-160 -2 -16 -6 -39 -8 -50 -3 -11 -8 -42 -11 -70 -4 -27 -10 -66 -12 -85 -3
-19 -7 -46 -9 -59 -2 -13 -7 -58 -11 -100 -3 -42 -8 -87 -9 -101 -27 -208 -26
-842 0 -1075 3 -22 7 -62 10 -90 2 -27 7 -63 9 -80 4 -28 13 -97 23 -175 2
-19 6 -46 9 -60 3 -14 7 -34 9 -45 2 -11 6 -33 9 -50 4 -16 9 -45 12 -64 8
-47 9 -52 39 -186 34 -152 32 -141 49 -202 7 -28 11 -54 8 -57 -3 -3 0 -6 7
-6 8 0 11 -7 7 -15 -3 -8 -1 -15 5 -15 6 0 8 -4 5 -9 -4 -5 -1 -22 5 -38 7
-15 14 -36 16 -46 18 -95 207 -597 273 -729 10 -20 16 -39 13 -42 -4 -3 -2 -6
4 -6 9 0 24 -34 20 -44 -1 -2 6 -13 16 -23 9 -11 14 -23 10 -26 -3 -4 -1 -7 6
-7 7 0 10 -4 6 -9 -3 -5 2 -17 11 -25 8 -9 13 -16 10 -16 -2 0 11 -28 29 -62
19 -35 42 -79 52 -98 14 -29 69 -125 184 -319 8 -14 18 -30 22 -35 4 -6 37
-56 73 -111 36 -55 71 -103 77 -107 7 -4 9 -8 5 -8 -10 0 207 -290 230 -308 9
-6 12 -12 8 -12 -5 0 2 -9 15 -20 13 -10 21 -19 17 -20 -5 0 10 -18 32 -40 22
-22 37 -40 33 -40 -4 0 2 -8 13 -19 10 -10 55 -58 99 -107 103 -114 316 -328
424 -424 46 -41 89 -80 95 -85 25 -23 194 -162 226 -185 18 -14 38 -30 44 -36
6 -5 63 -47 126 -92 63 -45 120 -85 125 -89 23 -19 136 -93 141 -93 5 0 101
-63 121 -80 7 -5 16 -10 20 -10 5 0 24 -11 43 -23 37 -25 106 -64 230 -130 41
-22 79 -44 85 -48 5 -5 17 -9 27 -9 10 0 18 -3 18 -8 0 -4 24 -18 53 -31 28
-13 88 -40 132 -60 44 -21 116 -52 160 -71 44 -18 98 -41 120 -50 22 -9 108
-41 190 -69 83 -29 159 -57 170 -62 11 -5 32 -10 48 -11 15 -1 27 -5 27 -9 0
-3 26 -12 58 -19 67 -16 63 -15 82 -23 13 -5 76 -22 120 -33 8 -2 53 -13 100
-24 47 -12 94 -23 105 -25 11 -2 56 -11 100 -20 44 -9 91 -18 105 -20 14 -3
39 -7 55 -9 92 -16 309 -46 365 -51 36 -4 81 -9 100 -11 247 -30 855 -25 1155
10 28 3 77 8 110 12 33 4 69 8 80 11 18 3 64 9 135 18 14 2 25 4 25 5 0 3 38
10 79 15 21 2 48 8 60 11 11 4 30 8 41 9 11 1 74 14 140 29 66 15 125 29 130
30 6 1 16 5 23 9 6 5 12 6 12 3 0 -3 11 -1 25 4 14 5 36 12 48 14 12 2 49 12
82 22 33 10 63 19 68 20 4 1 8 2 10 4 1 1 9 3 17 5 86 17 597 209 649 243 14
9 28 16 31 16 3 -1 30 10 60 24 30 14 57 26 60 27 21 6 106 51 108 57 2 4 10
8 17 8 8 0 37 14 65 30 28 17 54 30 57 30 10 0 258 144 261 152 2 5 8 8 12 8
11 0 140 79 158 97 7 7 17 13 22 13 5 0 29 16 54 35 25 19 46 32 46 30 0 -3
12 6 27 20 15 14 31 25 35 25 4 0 16 6 25 14 10 8 80 62 157 121 76 58 144
112 151 118 8 7 25 21 39 32 29 23 47 38 172 150 157 141 450 442 528 542 12
14 29 33 39 42 9 8 17 21 17 28 0 7 4 13 9 13 5 0 24 20 42 45 19 25 44 56 55
69 42 48 209 280 206 288 -1 4 2 8 7 8 6 0 16 11 23 24 7 13 38 61 68 107 30
46 60 91 65 101 6 9 43 72 83 140 40 68 72 127 72 132 -1 5 2 12 7 15 4 3 14
17 22 31 17 31 115 223 117 230 4 17 19 46 26 51 5 3 10 16 11 27 1 12 4 22 7
22 7 0 35 72 32 83 -1 4 2 7 8 7 5 0 10 4 10 9 0 5 7 25 15 45 8 20 16 39 16
43 1 5 9 24 19 43 10 19 36 87 59 150 23 63 45 122 48 130 3 8 7 17 8 20 1 3
4 12 7 20 25 68 67 214 63 220 -3 5 -1 10 5 12 5 1 11 12 13 23 6 30 18 78 24
95 7 17 9 25 18 65 9 43 13 60 15 60 1 0 3 7 5 15 8 40 14 67 19 90 3 14 10
46 16 71 15 63 18 80 19 107 1 15 5 21 13 16 7 -4 8 -3 4 5 -6 10 4 99 21 176
5 26 12 69 18 126 3 25 7 54 9 65 3 17 14 111 22 204 13 137 18 292 18 535 0
315 -6 436 -34 675 -15 124 -18 146 -35 255 -3 17 -8 49 -11 73 -7 52 -9 63
-17 82 -3 8 -8 33 -12 55 -6 41 -16 92 -20 110 -6 29 -17 74 -26 110 -6 22
-12 49 -14 60 -2 11 -4 20 -5 20 -2 0 -10 33 -15 60 -2 11 -8 34 -15 50 -6 17
-12 32 -12 35 0 3 -2 10 -3 15 -20 71 -29 111 -27 118 1 4 -3 7 -10 7 -6 0 -9
3 -5 6 3 3 -3 28 -13 55 -11 27 -17 49 -13 49 4 0 2 5 -5 12 -7 7 -12 20 -12
30 0 10 -4 26 -10 36 -5 9 -20 49 -34 87 -25 73 -76 202 -106 270 -10 22 -33
76 -53 120 -20 44 -37 87 -39 95 -2 8 -6 17 -9 20 -3 3 -28 49 -54 103 -26 53
-51 100 -56 103 -5 3 -7 9 -5 13 3 4 -3 17 -12 27 -10 10 -19 21 -20 24 -21
56 -28 70 -34 70 -4 0 -8 4 -8 9 0 6 -17 38 -37 73 -21 35 -42 71 -48 80 -57
97 -178 282 -187 286 -4 2 -8 8 -8 14 0 6 -10 23 -22 38 -13 15 -30 37 -38 50
-20 30 -85 117 -118 160 -58 74 -147 186 -157 196 -5 6 -28 33 -50 59 -106
128 -386 412 -529 540 -44 39 -86 78 -95 88 -8 9 -19 17 -24 17 -4 0 -23 16
-42 35 -19 19 -35 32 -35 29 0 -3 -10 5 -22 16 -13 12 -79 64 -148 116 -69 52
-130 98 -135 102 -33 27 -178 122 -186 122 -5 0 -9 5 -9 10 0 6 -7 10 -15 10
-8 0 -15 5 -15 10 0 6 -6 10 -14 10 -8 0 -16 4 -18 8 -3 8 -240 151 -328 198
-30 16 -57 31 -60 34 -5 6 -61 33 -70 34 -3 1 -12 6 -20 11 -32 21 -104 55
-116 55 -7 0 -14 5 -16 11 -2 5 -10 12 -18 14 -39 8 -60 18 -60 27 0 5 -4 6
-10 3 -5 -3 -10 -2 -10 3 0 5 -6 9 -12 9 -7 0 -42 14 -78 31 -91 42 -438 178
-480 187 -8 2 -35 11 -59 19 -24 9 -47 14 -51 11 -5 -3 -10 -1 -12 5 -1 5 -12
11 -23 13 -11 1 -26 6 -33 11 -7 4 -16 5 -19 2 -3 -3 -11 -2 -17 3 -6 4 -33
14 -61 20 -27 7 -57 16 -65 19 -8 3 -19 7 -25 8 -5 1 -13 3 -17 4 -5 1 -12 4
-18 5 -5 1 -11 3 -12 4 -2 1 -19 4 -38 7 -19 2 -42 7 -50 11 -17 7 -35 12 -65
17 -11 2 -45 9 -75 16 -90 19 -104 21 -122 23 -10 1 -18 4 -18 7 0 3 -10 5
-22 6 -23 0 -81 9 -127 18 -13 3 -49 8 -80 12 -31 3 -58 8 -61 9 -4 3 -61 10
-160 20 -14 2 -52 6 -85 9 -33 4 -91 9 -130 12 -74 6 -702 14 -707 9z"/>
</g>
</svg>
